<?xml version="1.0" encoding="iso-8859-1"?>
<!-- Generator: Adobe Illustrator 19.0.0, SVG Export Plug-In . SVG Version: 6.00 Build 0)  -->
<svg version="1.1" id="Layer_1" xmlns="http://www.w3.org/2000/svg" xmlns:xlink="http://www.w3.org/1999/xlink" x="0px" y="0px"
	 viewBox="0 0 495 495" style="enable-background:new 0 0 495 495;" xml:space="preserve">
<g>
	<polygon style="fill:#00969B;" points="247.5,0 247.5,40 455,40 455,455 247.5,455 247.5,495 495,495 495,0 	"/>
	<polygon style="fill:#00B6BD;" points="40,455 40,40 247.5,40 247.5,0 0,0 0,495 247.5,495 247.5,455 	"/>
	<polygon style="fill:#00B6BD;" points="253.38,325.98 253.38,319.106 169.644,319.106 169.644,123.399 108.609,123.399 
		108.609,371.601 253.38,371.601 	"/>
	<path style="fill:#00B6BD;" d="M277.83,371.601h55v-89.585c0-4.408,0.36-8.817,1.035-12.322
		c3.689-17.046,17.403-27.929,37.778-27.929c6.16,0,10.746,0.719,14.748,1.573V191.53c-4.002-0.719-6.475-0.719-11.556-0.719
		c-17.046,0-38.676,10.927-47.808,36.562h-1.394l-1.751-32.695h-47.448c0.722,15.289,1.397,32.335,1.397,58.329V371.601z"/>
</g>
<g>
</g>
<g>
</g>
<g>
</g>
<g>
</g>
<g>
</g>
<g>
</g>
<g>
</g>
<g>
</g>
<g>
</g>
<g>
</g>
<g>
</g>
<g>
</g>
<g>
</g>
<g>
</g>
<g>
</g>
</svg>
